<svg width="36" height="36" viewBox="0 0 36 36" fill="none" xmlns="http://www.w3.org/2000/svg">
<path fill-rule="evenodd" clip-rule="evenodd" d="M18.4805 0.990234C8.8157 0.990234 0.980469 8.82546 0.980469 18.4902C0.980469 28.155 8.8157 35.9902 18.4805 35.9902C28.1452 35.9902 35.9805 28.155 35.9805 18.4902C35.9805 8.82546 28.1452 0.990234 18.4805 0.990234ZM24.378 14.8423C24.6678 14.5422 24.8281 14.1404 24.8245 13.7232C24.8209 13.3061 24.6536 12.9071 24.3586 12.6121C24.0636 12.3171 23.6646 12.1498 23.2475 12.1462C22.8303 12.1426 22.4285 12.3029 22.1284 12.5927L18.4805 16.2407L14.8325 12.5927C14.6858 12.4408 14.5102 12.3196 14.3161 12.2362C14.122 12.1528 13.9133 12.1089 13.702 12.1071C13.4908 12.1053 13.2813 12.1455 13.0858 12.2255C12.8903 12.3055 12.7126 12.4236 12.5633 12.573C12.4139 12.7224 12.2957 12.9 12.2158 13.0955C12.1358 13.2911 12.0955 13.5005 12.0973 13.7118C12.0992 13.923 12.1431 14.1318 12.2264 14.3259C12.3098 14.52 12.431 14.6955 12.583 14.8423L16.2309 18.4902L12.583 22.1382C12.431 22.2849 12.3098 22.4605 12.2264 22.6546C12.1431 22.8487 12.0992 23.0574 12.0973 23.2687C12.0955 23.4799 12.1358 23.6894 12.2158 23.8849C12.2957 24.0805 12.4139 24.2581 12.5633 24.4075C12.7126 24.5568 12.8903 24.675 13.0858 24.755C13.2813 24.8349 13.4908 24.8752 13.702 24.8734C13.9133 24.8715 14.122 24.8276 14.3161 24.7443C14.5102 24.6609 14.6858 24.5397 14.8325 24.3877L18.4805 20.7398L22.1284 24.3877C22.4285 24.6775 22.8303 24.8379 23.2475 24.8343C23.6646 24.8306 24.0636 24.6633 24.3586 24.3684C24.6536 24.0734 24.8209 23.6744 24.8245 23.2572C24.8281 22.8401 24.6678 22.4382 24.378 22.1382L20.73 18.4902L24.378 14.8423Z" fill="#FF3838"/>
</svg>

